<?xml version="1.0" encoding="UTF-8"?>
<svg id="Layer_1" data-name="Layer 1" xmlns="http://www.w3.org/2000/svg" xmlns:xlink="http://www.w3.org/1999/xlink" viewBox="0 0 97.6 85.09">
  <defs>
    <style>
      .cls-1 {
        fill: #6d6e71;
        stroke: #414042;
      }

      .cls-2 {
        fill: #808285;
      }

      .cls-3 {
        fill: #302e2f;
      }

      .cls-4 {
        fill: url(#linear-gradient-5);
      }

      .cls-4, .cls-5, .cls-6, .cls-7, .cls-8, .cls-9 {
        stroke: #a7a9ac;
        stroke-width: .5px;
      }

      .cls-10 {
        fill: #d1d3d4;
      }

      .cls-5 {
        fill: url(#linear-gradient);
      }

      .cls-6 {
        fill: url(#linear-gradient-2);
      }

      .cls-7 {
        fill: url(#linear-gradient-3);
      }

      .cls-11 {
        fill: #939598;
        stroke: #808285;
        stroke-width: .75px;
      }

      .cls-8 {
        fill: url(#linear-gradient-6);
      }

      .cls-9 {
        fill: url(#linear-gradient-4);
      }
    </style>
    <linearGradient id="linear-gradient" x1="48.95" y1="33.68" x2="48.95" y2="55.66" gradientUnits="userSpaceOnUse">
      <stop offset="0" stop-color="#bdbdbd"/>
      <stop offset="1" stop-color="#666"/>
    </linearGradient>
    <linearGradient id="linear-gradient-2" x1="48.96" y1="55.66" x2="48.96" y2="2.84" gradientUnits="userSpaceOnUse">
      <stop offset="0" stop-color="#bdbdbd"/>
      <stop offset="1" stop-color="#a3a3a3"/>
    </linearGradient>
    <linearGradient id="linear-gradient-3" x1="516.91" y1="1080.83" x2="516.91" y2="1102.81" gradientTransform="translate(-647.55 1054.25) rotate(-120)" xlink:href="#linear-gradient"/>
    <linearGradient id="linear-gradient-4" x1="516.92" y1="1102.81" x2="516.92" y2="1050" gradientTransform="translate(-647.55 1054.25) rotate(-120)" xlink:href="#linear-gradient-2"/>
    <linearGradient id="linear-gradient-5" x1="-560.43" y1="893.8" x2="-560.43" y2="915.78" gradientTransform="translate(561.43 997.53) rotate(120)" xlink:href="#linear-gradient"/>
    <linearGradient id="linear-gradient-6" x1="-560.42" y1="915.78" x2="-560.42" y2="862.96" gradientTransform="translate(561.43 997.53) rotate(120)" xlink:href="#linear-gradient-2"/>
  </defs>
  <g>
    <path class="cls-5" d="M51.76,55.44c0,.12-.2.22-.44.22h-4.75c-.24,0-.44-.1-.44-.22v-21.55c0-.12.2-.22.44-.22h4.75c.24,0,.44.1.44.22v21.55Z"/>
    <path class="cls-3" d="M54.38,3.77c0,.51-.41.92-.92.92h-5.26c-.51,0-.92-.41-.92-.92h0c0-.51.41-.92.92-.92h5.26c.51,0,.92.41.92.92h0Z"/>
    <path class="cls-6" d="M50.59,55.13c0,.29-.11.52-.25.52h-2.75c-.14,0-.25-.23-.25-.52V3.37c0-.29.11-.52.25-.52h2.75c.14,0,.25.23.25.52v51.77Z"/>
    <path class="cls-2" d="M51.76,3.73c0-1.55-1.26-2.8-2.8-2.8s-2.8,1.26-2.8,2.8,1.26,2.8,2.8,2.8,2.8-1.25,2.8-2.8Z"/>
    <path class="cls-10" d="M47.5,0h2.91c.4,0,.72.32.72.72v6.01c0,.4-.32.72-.72.72h-2.91c-.4,0-.72-.32-.72-.72V.72c0-.4.32-.72.72-.72Z"/>
  </g>
  <g>
    <path class="cls-7" d="M47.44,52.87c.1-.06.29.06.41.27l2.37,4.11c.12.21.14.43.03.49l-18.66,10.77c-.1.06-.29-.06-.41-.27l-2.37-4.11c-.12-.21-.14-.43-.03-.49l18.66-10.77Z"/>
    <path class="cls-3" d="M1.38,76.44c.44-.25,1.01-.1,1.26.34l2.63,4.56c.26.44.1,1.01-.34,1.26h0c-.44.26-1.01.1-1.26-.34l-2.63-4.55c-.26-.44-.1-1.01.34-1.26h0Z"/>
    <path class="cls-9" d="M47.76,54.04c.25-.14.51-.16.58-.04l1.37,2.38c.07.12-.08.34-.33.48L4.55,82.74c-.25.14-.51.16-.58.04l-1.37-2.38c-.07-.12.08-.34.32-.48l44.83-25.88Z"/>
    <path class="cls-2" d="M2.65,78.73c-1.34.77-1.8,2.49-1.03,3.83.77,1.34,2.49,1.8,3.83,1.03,1.34-.77,1.8-2.49,1.02-3.83-.77-1.34-2.49-1.8-3.83-1.03Z"/>
    <path class="cls-10" d="M1.05,78.98h6.01c.4,0,.72.32.72.72v2.91c0,.4-.32.72-.72.72H1.05c-.4,0-.72-.32-.72-.72v-2.91c0-.4.32-.72.72-.72Z" transform="translate(-40.02 12.89) rotate(-29.99)"/>
  </g>
  <g>
    <path class="cls-4" d="M47.37,56.86c-.1-.06-.09-.28.03-.49l2.37-4.11c.12-.21.3-.33.41-.27l18.66,10.77c.1.06.09.28-.03.49l-2.37,4.11c-.12.21-.3.33-.41.27l-18.66-10.77Z"/>
    <path class="cls-3" d="M90.81,84.96c-.44-.25-.59-.82-.34-1.26l2.63-4.56c.26-.44.82-.59,1.26-.34h0c.44.26.59.82.34,1.26l-2.63,4.56c-.26.44-.82.59-1.26.34h0Z"/>
    <path class="cls-8" d="M48.22,56c-.25-.14-.4-.36-.33-.48l1.37-2.38c.07-.12.33-.1.58.04l44.83,25.88c.25.14.4.36.32.48l-1.37,2.38c-.07.12-.33.1-.58-.04l-44.83-25.88Z"/>
    <path class="cls-2" d="M92.15,82.72c1.34.77,3.06.32,3.83-1.03.77-1.34.31-3.05-1.03-3.83-1.34-.77-3.05-.31-3.83,1.03-.77,1.34-.31,3.05,1.03,3.83Z"/>
    <path class="cls-10" d="M92.1,76.56h2.91c.4,0,.72.32.72.72v6.01c0,.4-.32.72-.72.72h-2.91c-.4,0-.72-.32-.72-.72v-6.01c0-.4.32-.72.72-.72Z" transform="translate(-22.76 121.15) rotate(-59.99)"/>
  </g>
  <path class="cls-1" d="M51.76,55.15c0,1.19-1.11,2.16-2.47,2.16s-2.47-.97-2.47-2.16,1.11-2.16,2.47-2.16,2.47.97,2.47,2.16Z"/>
  <path class="cls-11" d="M52.44,56.82h1.18c.65,0,1.18-.53,1.18-1.18v-1.36c0-.65-.53-1.18-1.18-1.18h-1.18c-.64-1.07-1.81-1.79-3.14-1.79-2.02,0-3.66,1.64-3.66,3.66s1.64,3.66,3.66,3.66c1.34,0,2.51-.72,3.14-1.79ZM47.66,54.95c0-.9.73-1.64,1.64-1.64s1.64.73,1.64,1.64-.73,1.64-1.64,1.64-1.64-.73-1.64-1.64Z"/>
</svg>