<?xml version="1.0" encoding="UTF-8"?>
<svg id="Layer_1" data-name="Layer 1" xmlns="http://www.w3.org/2000/svg" xmlns:xlink="http://www.w3.org/1999/xlink" viewBox="0 0 58.83 31.09">
  <defs>
    <style>
      .cls-1 {
        fill: #231f20;
      }

      .cls-2 {
        fill: none;
      }

      .cls-3 {
        fill: #414142;
      }

      .cls-4 {
        isolation: isolate;
      }

      .cls-5 {
        clip-path: url(#clippath);
      }
    </style>
    <clipPath id="clippath">
      <polygon class="cls-2" points="5.85 31.09 0 0 58.83 0 52.98 31.09 5.85 31.09"/>
    </clipPath>
  </defs>
  <g class="cls-4">
    <g class="cls-5">
      <g>
        <path class="cls-1" d="M23.93,28.59h-.23l.04.83h5.57v-.11h-5.34l-.03-.72M33.02,28.59h-.22l-.02.72h-3.24v.11h3.46l.02-.83"/>
        <polyline class="cls-1" points="29.54 28.59 29.3 28.59 29.3 29.31 29.3 29.42 29.31 31.09 29.53 31.09 29.53 29.42 29.53 29.31 29.54 28.59"/>
        <polyline class="cls-3" points="55.13 1.98 3.71 1.98 7.91 27.23 50.93 27.23 55.13 1.98"/>
        <path class="cls-1" d="M7.91,27.23L3.71,1.98h51.42l-4.21,25.25H7.91M58.83,0H0l5.38,28.59h48.07L58.83,0"/>
      </g>
    </g>
  </g>
</svg>
