<?xml version="1.0" encoding="UTF-8"?>
<svg xmlns="http://www.w3.org/2000/svg" xmlns:xlink="http://www.w3.org/1999/xlink" viewBox="0 0 38.94 34.87">
  <defs>
    <style>
      .cls-1 {
        fill: #6e2941;
      }

      .cls-2 {
        fill: url(#New_Gradient_Swatch_4-3);
      }

      .cls-2, .cls-3, .cls-4, .cls-5 {
        stroke: #414042;
      }

      .cls-3 {
        fill: url(#New_Gradient_Swatch_4-4);
      }

      .cls-6 {
        fill: #231f20;
      }

      .cls-7 {
        fill: #c05176;
      }

      .cls-7, .cls-8, .cls-9, .cls-10 {
        stroke: #6e2941;
      }

      .cls-7, .cls-9, .cls-10 {
        stroke-width: .25px;
      }

      .cls-4 {
        fill: url(#New_Gradient_Swatch_4);
      }

      .cls-8 {
        fill: #923c59;
      }

      .cls-9 {
        fill: #a94868;
      }

      .cls-11, .cls-10 {
        fill: none;
      }

      .cls-12 {
        isolation: isolate;
      }

      .cls-5 {
        fill: url(#New_Gradient_Swatch_4-2);
      }

      .cls-13 {
        fill: #a44565;
      }

      .cls-14 {
        clip-path: url(#clippath);
      }

      .cls-15 {
        mix-blend-mode: darken;
        opacity: .92;
      }
    </style>
    <linearGradient id="New_Gradient_Swatch_4" data-name="New Gradient Swatch 4" x1="19.47" y1="11.9" x2="19.47" y2="2.45" gradientUnits="userSpaceOnUse">
      <stop offset="0" stop-color="#414042"/>
      <stop offset="1" stop-color="#393839"/>
    </linearGradient>
    <linearGradient id="New_Gradient_Swatch_4-2" data-name="New Gradient Swatch 4" x1="1390.94" y1="1660.63" x2="1390.94" y2="1651.18" gradientTransform="translate(1410.41 1685.27) rotate(-180)" xlink:href="#New_Gradient_Swatch_4"/>
    <linearGradient id="New_Gradient_Swatch_4-3" data-name="New Gradient Swatch 4" x1="-142.56" y1="1496.08" x2="-142.56" y2="1486.63" gradientTransform="translate(1525.28 159.99) rotate(90)" xlink:href="#New_Gradient_Swatch_4"/>
    <linearGradient id="New_Gradient_Swatch_4-4" data-name="New Gradient Swatch 4" x1="-142.56" y1="93.71" x2="-142.56" y2="84.27" gradientTransform="translate(-84.46 159.99) rotate(90) scale(1 -1)" xlink:href="#New_Gradient_Swatch_4"/>
    <clipPath id="clippath">
      <path class="cls-11" d="M25.24,17.43c0,3.19-2.58,5.77-5.77,5.77s-5.77-2.58-5.77-5.77,2.58-5.77,5.77-5.77,5.77,2.58,5.77,5.77Z"/>
    </clipPath>
  </defs>
  <g class="cls-12">
    <g id="Layer_1" data-name="Layer 1">
      <g>
        <g>
          <polyline class="cls-4" points="13.07 12.35 9.23 .5 29.71 .5 26.07 12.35"/>
          <polyline class="cls-5" points="25.87 22.51 29.71 34.37 9.23 34.37 12.87 22.51"/>
        </g>
        <g>
          <polyline class="cls-2" points="26.59 12.84 38.44 10.08 38.44 24.79 26.59 22.17"/>
          <polyline class="cls-3" points="12.35 12.84 .5 10.08 .5 24.79 12.35 22.17"/>
        </g>
        <g>
          <path class="cls-1" d="M10.68,18.42c0,.78-.63,1.4-1.4,1.4h-1.17c-.78,0-1.41-.63-1.41-1.4v-1.98c0-.78.63-1.41,1.41-1.41h1.17c.78,0,1.4.63,1.4,1.41v1.98Z"/>
          <path class="cls-1" d="M29.66,15.04h1.17c.78,0,1.4.63,1.4,1.4v1.98c0,.78-.63,1.41-1.41,1.41h-1.17c-.78,0-1.41-.63-1.41-1.41v-1.98c0-.78.63-1.4,1.4-1.4Z"/>
        </g>
        <path class="cls-8" d="M29.99,17.43c0,5.81-4.71,10.51-10.51,10.51s-10.52-4.71-10.52-10.51,4.71-10.52,10.52-10.52,10.51,4.71,10.51,10.52Z"/>
        <path class="cls-9" d="M28.7,17.43c0,5.1-4.13,9.23-9.23,9.23s-9.23-4.13-9.23-9.23,4.13-9.23,9.23-9.23,9.23,4.13,9.23,9.23Z"/>
        <g class="cls-15">
          <path class="cls-6" d="M24.88,22.46c0,.14-.11.25-.26.25s-.25-.11-.25-.25.11-.25.25-.25.26.11.26.25Z"/>
          <path class="cls-6" d="M25.63,21.71c0,.14-.11.25-.25.25s-.25-.11-.25-.25.11-.25.25-.25.25.11.25.25Z"/>
          <path class="cls-6" d="M27.09,21.71c0,.14-.11.25-.25.25s-.25-.11-.25-.25.11-.25.25-.25.25.11.25.25Z"/>
          <path class="cls-6" d="M14.43,22.46c0,.14-.11.25-.25.25s-.25-.11-.25-.25.11-.25.25-.25.25.11.25.25Z"/>
          <path class="cls-6" d="M13.69,21.71c0,.14-.11.25-.25.25s-.25-.11-.25-.25.11-.25.25-.25.25.11.25.25Z"/>
          <path class="cls-6" d="M13.72,21.71c0,.14-.11.25-.26.25s-.25-.11-.25-.25.11-.25.25-.25.26.11.26.25Z"/>
          <path class="cls-6" d="M12.23,21.71c0,.14-.11.25-.25.25s-.25-.11-.25-.25.11-.25.25-.25.25.11.25.25Z"/>
          <path class="cls-6" d="M25.63,20.27c0,.14-.11.25-.25.25s-.25-.11-.25-.25.11-.25.25-.25.25.11.25.25Z"/>
          <path class="cls-6" d="M26.34,21.01c0,.14-.11.25-.25.25s-.25-.11-.25-.25.11-.25.25-.25.25.11.25.25Z"/>
          <path class="cls-6" d="M27.09,20.27c0,.14-.11.25-.25.25s-.25-.11-.25-.25.11-.25.25-.25.25.11.25.25Z"/>
          <path class="cls-6" d="M13.69,20.27c0,.14-.11.25-.25.25s-.25-.11-.25-.25.11-.25.25-.25.25.11.25.25Z"/>
          <path class="cls-6" d="M12.98,21.01c0,.14-.12.25-.26.25s-.25-.11-.25-.25.11-.25.25-.25.26.11.26.25Z"/>
          <path class="cls-6" d="M13.72,20.27c0,.14-.11.25-.26.25s-.25-.11-.25-.25.11-.25.25-.25.26.11.26.25Z"/>
          <path class="cls-6" d="M12.23,20.27c0,.14-.11.25-.25.25s-.25-.11-.25-.25.11-.25.25-.25.25.11.25.25Z"/>
          <path class="cls-6" d="M26.34,19.57c0,.14-.11.25-.25.25s-.25-.11-.25-.25.11-.25.25-.25.25.11.25.25Z"/>
          <path class="cls-6" d="M27.09,18.83c0,.14-.11.25-.25.25s-.25-.11-.25-.25.11-.25.25-.25.25.11.25.25Z"/>
          <path class="cls-6" d="M12.98,19.57c0,.14-.12.25-.26.25s-.25-.11-.25-.25.11-.25.25-.25.26.11.26.25Z"/>
          <path class="cls-6" d="M12.23,18.83c0,.14-.11.25-.25.25s-.25-.11-.25-.25.11-.25.25-.25.25.11.25.25Z"/>
          <path class="cls-6" d="M26.34,18.13c0,.14-.11.25-.25.25s-.25-.11-.25-.25.11-.25.25-.25.25.11.25.25Z"/>
          <path class="cls-6" d="M27.09,17.39c0,.14-.11.25-.25.25s-.25-.11-.25-.25.11-.25.25-.25.25.11.25.25Z"/>
          <path class="cls-6" d="M12.98,18.13c0,.14-.12.25-.26.25s-.25-.11-.25-.25.11-.25.25-.25.26.11.26.25Z"/>
          <path class="cls-6" d="M11.54,18.13c0,.14-.11.25-.25.25s-.25-.11-.25-.25.11-.25.25-.25.25.11.25.25Z"/>
          <path class="cls-6" d="M12.23,17.39c0,.14-.11.25-.25.25s-.25-.11-.25-.25.11-.25.25-.25.25.11.25.25Z"/>
          <path class="cls-6" d="M26.34,16.69c0,.14-.11.25-.25.25s-.25-.11-.25-.25.11-.25.25-.25.25.11.25.25Z"/>
          <path class="cls-6" d="M27.78,18.13c0,.14-.12.25-.25.25s-.25-.11-.25-.25.12-.25.25-.25.25.11.25.25Z"/>
          <path class="cls-6" d="M27.78,16.69c0,.14-.12.25-.25.25s-.25-.11-.25-.25.12-.25.25-.25.25.11.25.25Z"/>
          <path class="cls-6" d="M27.09,15.95c0,.14-.11.25-.25.25s-.25-.11-.25-.25.11-.25.25-.25.25.11.25.25Z"/>
          <path class="cls-6" d="M12.98,16.69c0,.14-.12.25-.26.25s-.25-.11-.25-.25.11-.25.25-.25.26.11.26.25Z"/>
          <path class="cls-6" d="M11.54,16.69c0,.14-.11.25-.25.25s-.25-.11-.25-.25.11-.25.25-.25.25.11.25.25Z"/>
          <path class="cls-6" d="M12.23,15.95c0,.14-.11.25-.25.25s-.25-.11-.25-.25.11-.25.25-.25.25.11.25.25Z"/>
          <path class="cls-6" d="M25.63,14.43c0,.14-.11.25-.25.25s-.25-.11-.25-.25.11-.25.25-.25.25.11.25.25Z"/>
          <path class="cls-6" d="M26.34,15.18c0,.14-.11.25-.25.25s-.25-.11-.25-.25.11-.25.25-.25.25.11.25.25Z"/>
          <path class="cls-6" d="M27.09,14.43c0,.14-.11.25-.25.25s-.25-.11-.25-.25.11-.25.25-.25.25.11.25.25Z"/>
          <path class="cls-6" d="M13.69,14.43c0,.14-.11.25-.25.25s-.25-.11-.25-.25.11-.25.25-.25.25.11.25.25Z"/>
          <path class="cls-6" d="M12.98,15.18c0,.14-.12.25-.26.25s-.25-.11-.25-.25.11-.25.25-.25.26.11.26.25Z"/>
          <path class="cls-6" d="M13.72,14.43c0,.14-.11.25-.26.25s-.25-.11-.25-.25.11-.25.25-.25.26.11.26.25Z"/>
          <path class="cls-6" d="M12.23,14.43c0,.14-.11.25-.25.25s-.25-.11-.25-.25.11-.25.25-.25.25.11.25.25Z"/>
          <path class="cls-6" d="M25.63,13.07c0,.14-.11.25-.25.25s-.25-.11-.25-.25.11-.25.25-.25.25.11.25.25Z"/>
          <path class="cls-6" d="M26.34,13.81c0,.14-.11.25-.25.25s-.25-.11-.25-.25.11-.25.25-.25.25.11.25.25Z"/>
          <path class="cls-6" d="M27.09,13.07c0,.14-.11.25-.25.25s-.25-.11-.25-.25.11-.25.25-.25.25.11.25.25Z"/>
          <path class="cls-6" d="M13.69,13.07c0,.14-.11.25-.25.25s-.25-.11-.25-.25.11-.25.25-.25.25.11.25.25Z"/>
          <path class="cls-6" d="M12.98,13.81c0,.14-.12.25-.26.25s-.25-.11-.25-.25.11-.25.25-.25.26.11.26.25Z"/>
          <path class="cls-6" d="M13.72,13.07c0,.14-.11.25-.26.25s-.25-.11-.25-.25.11-.25.25-.25.26.11.26.25Z"/>
          <path class="cls-6" d="M12.23,13.07c0,.14-.11.25-.25.25s-.25-.11-.25-.25.11-.25.25-.25.25.11.25.25Z"/>
          <path class="cls-6" d="M22.64,11.63c0,.14-.11.25-.25.25s-.25-.11-.25-.25.11-.25.25-.25.25.11.25.25Z"/>
          <path class="cls-6" d="M24.14,11.63c0,.14-.11.25-.25.25s-.25-.11-.25-.25.11-.25.25-.25.25.11.25.25Z"/>
          <path class="cls-6" d="M24.88,12.37c0,.14-.11.25-.26.25s-.25-.11-.25-.25.11-.25.25-.25.26.11.26.25Z"/>
          <path class="cls-6" d="M25.63,11.63c0,.14-.11.25-.25.25s-.25-.11-.25-.25.11-.25.25-.25.25.11.25.25Z"/>
          <path class="cls-6" d="M16.67,11.63c0,.14-.12.25-.26.25s-.25-.11-.25-.25.11-.25.25-.25.26.11.26.25Z"/>
          <path class="cls-6" d="M14.43,12.37c0,.14-.11.25-.25.25s-.25-.11-.25-.25.11-.25.25-.25.25.11.25.25Z"/>
          <path class="cls-6" d="M15.18,11.63c0,.14-.11.25-.25.25s-.25-.11-.25-.25.11-.25.25-.25.25.11.25.25Z"/>
          <path class="cls-6" d="M13.69,11.63c0,.14-.11.25-.25.25s-.25-.11-.25-.25.11-.25.25-.25.25.11.25.25Z"/>
          <path class="cls-6" d="M13.72,11.63c0,.14-.11.25-.26.25s-.25-.11-.25-.25.11-.25.25-.25.26.11.26.25Z"/>
          <path class="cls-6" d="M18.91,10.93c0,.14-.12.25-.25.25s-.26-.11-.26-.25.12-.25.26-.25.25.11.25.25Z"/>
          <path class="cls-6" d="M19.66,10.19c0,.14-.11.25-.26.25s-.25-.11-.25-.25.12-.25.25-.25.26.11.26.25Z"/>
          <path class="cls-6" d="M20.4,10.93c0,.14-.11.25-.25.25s-.25-.11-.25-.25.12-.25.25-.25.25.11.25.25Z"/>
          <path class="cls-6" d="M21.15,10.19c0,.14-.11.25-.26.25s-.25-.11-.25-.25.11-.25.25-.25.26.11.26.25Z"/>
          <path class="cls-6" d="M21.9,10.93c0,.14-.12.25-.26.25s-.25-.11-.25-.25.11-.25.25-.25.26.11.26.25Z"/>
          <path class="cls-6" d="M22.64,10.19c0,.14-.11.25-.25.25s-.25-.11-.25-.25.11-.25.25-.25.25.11.25.25Z"/>
          <path class="cls-6" d="M23.39,10.93c0,.14-.11.25-.25.25s-.25-.11-.25-.25.11-.25.25-.25.25.11.25.25Z"/>
          <path class="cls-6" d="M24.14,10.19c0,.14-.11.25-.25.25s-.25-.11-.25-.25.11-.25.25-.25.25.11.25.25Z"/>
          <path class="cls-6" d="M17.42,10.93c0,.14-.12.25-.26.25s-.25-.11-.25-.25.12-.25.25-.25.26.11.26.25Z"/>
          <path class="cls-6" d="M18.17,10.19c0,.14-.11.25-.25.25s-.25-.11-.25-.25.12-.25.25-.25.25.11.25.25Z"/>
          <path class="cls-6" d="M15.93,10.93c0,.14-.12.25-.26.25s-.25-.11-.25-.25.11-.25.25-.25.26.11.26.25Z"/>
          <path class="cls-6" d="M16.67,10.19c0,.14-.12.25-.26.25s-.25-.11-.25-.25.11-.25.25-.25.26.11.26.25Z"/>
          <path class="cls-6" d="M15.18,10.19c0,.14-.11.25-.25.25s-.25-.11-.25-.25.11-.25.25-.25.25.11.25.25Z"/>
          <path class="cls-6" d="M18.91,9.49c0,.14-.12.25-.25.25s-.26-.11-.26-.25.12-.25.26-.25.25.11.25.25Z"/>
          <path class="cls-6" d="M20.4,9.49c0,.14-.11.25-.25.25s-.25-.11-.25-.25.12-.25.25-.25.25.11.25.25Z"/>
          <path class="cls-6" d="M21.9,9.49c0,.14-.12.25-.26.25s-.25-.11-.25-.25.11-.25.25-.25.26.11.26.25Z"/>
          <path class="cls-6" d="M17.42,9.49c0,.14-.12.25-.26.25s-.25-.11-.25-.25.12-.25.25-.25.26.11.26.25Z"/>
          <path class="cls-6" d="M18.91,23.89c0,.14-.12.26-.25.26s-.26-.12-.26-.26.12-.25.26-.25.25.11.25.25Z"/>
          <path class="cls-6" d="M20.4,23.89c0,.14-.11.26-.25.26s-.25-.12-.25-.26.12-.25.25-.25.25.11.25.25Z"/>
          <path class="cls-6" d="M21.9,23.89c0,.14-.12.26-.26.26s-.25-.12-.25-.26.11-.25.25-.25.26.11.26.25Z"/>
          <path class="cls-6" d="M22.64,23.15c0,.14-.11.25-.25.25s-.25-.11-.25-.25.11-.25.25-.25.25.11.25.25Z"/>
          <path class="cls-6" d="M23.39,23.89c0,.14-.11.26-.25.26s-.25-.12-.25-.26.11-.25.25-.25.25.11.25.25Z"/>
          <path class="cls-6" d="M24.14,23.15c0,.14-.11.25-.25.25s-.25-.11-.25-.25.11-.25.25-.25.25.11.25.25Z"/>
          <path class="cls-6" d="M25.63,23.15c0,.14-.11.25-.25.25s-.25-.11-.25-.25.11-.25.25-.25.25.11.25.25Z"/>
          <path class="cls-6" d="M17.42,23.89c0,.14-.12.26-.26.26s-.25-.12-.25-.26.12-.25.25-.25.26.11.26.25Z"/>
          <path class="cls-6" d="M15.93,23.89c0,.14-.12.26-.26.26s-.25-.12-.25-.26.11-.25.25-.25.26.11.26.25Z"/>
          <path class="cls-6" d="M16.67,23.15c0,.14-.12.25-.26.25s-.25-.11-.25-.25.11-.25.25-.25.26.11.26.25Z"/>
          <path class="cls-6" d="M15.18,23.15c0,.14-.11.25-.25.25s-.25-.11-.25-.25.11-.25.25-.25.25.11.25.25Z"/>
          <path class="cls-6" d="M13.69,23.15c0,.14-.11.25-.25.25s-.25-.11-.25-.25.11-.25.25-.25.25.11.25.25Z"/>
          <path class="cls-6" d="M13.72,23.15c0,.14-.11.25-.26.25s-.25-.11-.25-.25.11-.25.25-.25.26.11.26.25Z"/>
          <path class="cls-6" d="M18.91,25.34c0,.14-.12.25-.25.25s-.26-.11-.26-.25.12-.25.26-.25.25.11.25.25Z"/>
          <path class="cls-6" d="M19.66,24.59c0,.14-.11.25-.26.25s-.25-.12-.25-.25.12-.26.25-.26.26.12.26.26Z"/>
          <path class="cls-6" d="M20.4,25.34c0,.14-.11.25-.25.25s-.25-.11-.25-.25.12-.25.25-.25.25.11.25.25Z"/>
          <path class="cls-6" d="M21.15,24.59c0,.14-.11.25-.26.25s-.25-.12-.25-.25.11-.26.25-.26.26.12.26.26Z"/>
          <path class="cls-6" d="M21.9,25.34c0,.14-.12.25-.26.25s-.25-.11-.25-.25.11-.25.25-.25.26.11.26.25Z"/>
          <path class="cls-6" d="M22.64,24.59c0,.14-.11.25-.25.25s-.25-.12-.25-.25.11-.26.25-.26.25.12.25.26Z"/>
          <path class="cls-6" d="M24.14,24.59c0,.14-.11.25-.25.25s-.25-.12-.25-.25.11-.26.25-.26.25.12.25.26Z"/>
          <path class="cls-6" d="M17.42,25.34c0,.14-.12.25-.26.25s-.25-.11-.25-.25.12-.25.25-.25.26.11.26.25Z"/>
          <path class="cls-6" d="M18.17,24.59c0,.14-.11.25-.25.25s-.25-.12-.25-.25.12-.26.25-.26.25.12.25.26Z"/>
          <path class="cls-6" d="M16.67,24.59c0,.14-.12.25-.26.25s-.25-.12-.25-.25.11-.26.25-.26.26.12.26.26Z"/>
          <path class="cls-6" d="M15.18,24.59c0,.14-.11.25-.25.25s-.25-.12-.25-.25.11-.26.25-.26.25.12.25.26Z"/>
        </g>
        <g class="cls-14">
          <g>
            <path class="cls-13" d="M25.24,17.43c0,3.19-2.58,5.77-5.77,5.77s-5.77-2.58-5.77-5.77,2.58-5.77,5.77-5.77,5.77,2.58,5.77,5.77Z"/>
            <path class="cls-10" d="M25.24,17.43c0,3.19-2.58,5.77-5.77,5.77s-5.77-2.58-5.77-5.77,2.58-5.77,5.77-5.77,5.77,2.58,5.77,5.77Z"/>
          </g>
          <polygon class="cls-10" points="19.47 9.07 19.47 17.43 22.67 9.7 19.47 17.43 25.39 11.52 19.47 17.43 27.2 14.23 19.47 17.43 27.84 17.43 19.47 17.43 27.2 20.63 19.47 17.43 25.39 23.35 19.47 17.43 22.67 25.16 19.47 17.43 19.47 25.8 19.47 17.43 16.27 25.16 19.47 17.43 13.55 23.35 19.47 17.43 11.74 20.63 19.47 17.43 11.1 17.43 19.47 17.43 11.74 14.23 19.47 17.43 13.55 11.52 19.47 17.43 16.27 9.7 19.47 17.43 19.47 9.07"/>
          <path class="cls-7" d="M22.91,17.43c0,1.9-1.54,3.44-3.44,3.44s-3.44-1.54-3.44-3.44,1.54-3.44,3.44-3.44,3.44,1.54,3.44,3.44Z"/>
        </g>
      </g>
    </g>
  </g>
</svg>
