<?xml version="1.0" encoding="UTF-8"?>
<svg id="Layer_1" data-name="Layer 1" xmlns="http://www.w3.org/2000/svg" xmlns:xlink="http://www.w3.org/1999/xlink" viewBox="0 0 43.96 15.82">
  <defs>
    <style>
      .cls-1 {
        fill: #6e2941;
      }

      .cls-2 {
        fill: url(#New_Gradient_Swatch_2);
      }

      .cls-2, .cls-3 {
        stroke: #923c59;
      }

      .cls-4 {
        fill: #9e1f63;
      }

      .cls-3 {
        fill: #fff;
      }

      .cls-5 {
        fill: #a44565;
      }

      .cls-6 {
        fill: #414042;
      }
    </style>
    <linearGradient id="New_Gradient_Swatch_2" data-name="New Gradient Swatch 2" x1="22.09" y1="14.25" x2="22.09" y2="5.36" gradientUnits="userSpaceOnUse">
      <stop offset="0" stop-color="#572435"/>
      <stop offset=".99" stop-color="#923c59"/>
    </linearGradient>
  </defs>
  <g>
    <g>
      <rect class="cls-5" x="1.01" y="6.8" width="41.27" height="1.5"/>
      <path class="cls-5" d="M42.74,8.77H.54v-2.43h42.2s0,2.43,0,2.43h0ZM1.47,7.84h40.34v-.57H1.47v.57h0Z"/>
    </g>
    <g>
      <rect class="cls-6" x="42.28" y="6.51" width=".75" height="2.1"/>
      <polygon class="cls-1" points="43.96 9.53 41.35 9.53 41.35 5.58 43.96 5.58 43.96 9.53 43.96 9.53"/>
    </g>
    <g>
      <rect class="cls-4" x=".93" y="6.51" width=".73" height="2.1"/>
      <polygon class="cls-1" points="2.59 9.53 0 9.53 0 5.58 2.59 5.58 2.59 9.53 2.59 9.53"/>
    </g>
  </g>
  <polyline class="cls-3" points="4.16 4.48 8.67 .5 35.02 .5 40.16 4.35"/>
  <path class="cls-2" d="M37.89,15.31H6.41c-3.04-5.66-2.08-10.81-2.08-10.81h35.64s.44,6.96-2.08,10.81Z"/>
</svg>
