<?xml version="1.0" encoding="UTF-8"?>
<svg xmlns="http://www.w3.org/2000/svg" xmlns:xlink="http://www.w3.org/1999/xlink" viewBox="0 0 64.12 5.4">
  <defs>
    <style>
      .cls-1 {
        fill: url(#linear-gradient-2);
        mix-blend-mode: multiply;
      }

      .cls-2 {
        mask: url(#mask-1);
      }

      .cls-3 {
        mask: url(#mask);
      }

      .cls-4 {
        fill: #ed1c24;
      }

      .cls-5 {
        fill: url(#linear-gradient-3);
      }

      .cls-6 {
        isolation: isolate;
      }

      .cls-7 {
        mix-blend-mode: darken;
      }

      .cls-8 {
        fill: url(#linear-gradient);
      }

      .cls-9 {
        fill: #231f20;
        stroke: #58595b;
        stroke-linecap: round;
        stroke-width: .5px;
      }

      .cls-10 {
        filter: url(#luminosity-noclip);
      }
    </style>
    <linearGradient id="linear-gradient" x1="32.29" y1="5.28" x2="32.29" y2=".12" gradientUnits="userSpaceOnUse">
      <stop offset="0" stop-color="#d1d3d4"/>
      <stop offset=".53" stop-color="#fff"/>
      <stop offset="1" stop-color="#d1d3d4"/>
    </linearGradient>
    <filter id="luminosity-noclip" x="1.55" y="0" width="61.08" height="5.4" color-interpolation-filters="sRGB" filterUnits="userSpaceOnUse">
      <feFlood flood-color="#fff" result="bg"/>
      <feBlend in="SourceGraphic" in2="bg"/>
    </filter>
    <filter id="luminosity-noclip-2" x="1.55" y="-9049.74" width="61.08" height="32766" color-interpolation-filters="sRGB" filterUnits="userSpaceOnUse">
      <feFlood flood-color="#fff" result="bg"/>
      <feBlend in="SourceGraphic" in2="bg"/>
    </filter>
    <mask id="mask-1" x="1.55" y="-9049.74" width="61.08" height="32766" maskUnits="userSpaceOnUse"/>
    <linearGradient id="linear-gradient-2" x1="32.09" y1="5.4" x2="32.09" y2="0" gradientUnits="userSpaceOnUse">
      <stop offset="0" stop-color="#000"/>
      <stop offset=".5" stop-color="#858585"/>
      <stop offset="1" stop-color="#000"/>
    </linearGradient>
    <mask id="mask" x="1.55" y="0" width="61.08" height="5.4" maskUnits="userSpaceOnUse">
      <g class="cls-10">
        <g class="cls-2">
          <path class="cls-1" d="M62.63,2.66c0,1.79-.42,2.74-.42,2.74h-3.87s.28-.82.28-2.63-.28-2.77-.28-2.77h3.87s.42.87.42,2.66ZM1.96,5.4h3.87s-.28-.96-.28-2.77.28-2.63.28-2.63H1.96s-.42.96-.42,2.74.42,2.66.42,2.66Z"/>
        </g>
      </g>
    </mask>
    <linearGradient id="linear-gradient-3" x1="32.09" y1="5.4" x2="32.09" y2="0" gradientUnits="userSpaceOnUse">
      <stop offset="0" stop-color="#231f20"/>
      <stop offset=".5" stop-color="#231f20"/>
      <stop offset="1" stop-color="#231f20"/>
    </linearGradient>
  </defs>
  <g class="cls-6">
    <g id="Layer_1" data-name="Layer 1">
      <g>
        <g>
          <line class="cls-9" y1="1.62" x2="4.76" y2="1.62"/>
          <line class="cls-9" y1="3.78" x2="4.76" y2="3.78"/>
        </g>
        <g>
          <line class="cls-9" x1="59.35" y1="1.62" x2="64.12" y2="1.62"/>
          <line class="cls-9" x1="59.35" y1="3.78" x2="64.12" y2="3.78"/>
        </g>
        <rect class="cls-8" x="3.05" y=".12" width="58.49" height="5.16"/>
        <g>
          <path class="cls-4" d="M62.63,2.66c0,1.79-.42,2.74-.42,2.74h-3.87s.28-.82.28-2.63-.28-2.77-.28-2.77h3.87s.42.87.42,2.66ZM1.96,5.4h3.87s-.28-.96-.28-2.77.28-2.63.28-2.63H1.96s-.42.96-.42,2.74.42,2.66.42,2.66Z"/>
          <g class="cls-7">
            <g class="cls-3">
              <path class="cls-5" d="M62.63,2.66c0,1.79-.42,2.74-.42,2.74h-3.87s.28-.82.28-2.63-.28-2.77-.28-2.77h3.87s.42.87.42,2.66ZM1.96,5.4h3.87s-.28-.96-.28-2.77.28-2.63.28-2.63H1.96s-.42.96-.42,2.74.42,2.66.42,2.66Z"/>
            </g>
          </g>
        </g>
      </g>
    </g>
  </g>
</svg>