<?xml version="1.0" encoding="UTF-8"?>
<svg id="Layer_1" data-name="Layer 1" xmlns="http://www.w3.org/2000/svg" xmlns:xlink="http://www.w3.org/1999/xlink" viewBox="0 0 22.43 55.24">
  <defs>
    <style>
      .cls-1 {
        fill: #302e2f;
      }

      .cls-1, .cls-2, .cls-3 {
        stroke: #231f20;
      }

      .cls-4 {
        fill: #231f20;
      }

      .cls-5 {
        stroke: #5f6062;
        stroke-width: .5px;
      }

      .cls-5, .cls-2, .cls-6, .cls-3 {
        fill: none;
      }

      .cls-6 {
        stroke: #414042;
      }

      .cls-7 {
        fill: #1e1d1e;
        filter: url(#drop-shadow-1);
      }

      .cls-3 {
        stroke-width: 1.5px;
      }

      .cls-8 {
        fill: #414042;
      }
    </style>
    <filter id="drop-shadow-1" x="6.18" y="1.12" width="10.32" height="53.04" filterUnits="userSpaceOnUse">
      <feOffset dx="0" dy="0"/>
      <feGaussianBlur result="blur" stdDeviation=".72"/>
      <feFlood flood-color="#231f20" flood-opacity="1"/>
      <feComposite in2="blur" operator="in"/>
      <feComposite in="SourceGraphic"/>
    </filter>
  </defs>
  <g>
    <line class="cls-3" x1="4.14" y1="34.54" x2="18.54" y2="34.54"/>
    <line class="cls-6" x1="4.12" y1="32.45" x2="4.12" y2="36.59"/>
    <line class="cls-6" x1="18.52" y1="32.45" x2="18.52" y2="36.59"/>
  </g>
  <g>
    <polygon class="cls-4" points="4.83 6.95 2 3.83 1.73 .36 4.05 0 3.78 1 3 .72 3 2.92 5.74 2.92 5.74 4.2 4.83 6.95"/>
    <polyline class="cls-4" points="20.56 3.83 17.83 6.95 16.91 2.92 19.65 2.92 19.65 .72 18.88 1 18.6 0 20.93 .36"/>
  </g>
  <polygon class="cls-1" points="18.51 5.39 16.44 13.08 16.44 22.78 17.55 30.34 17 50.46 13.57 54.74 9.24 54.74 5.71 50.49 5.06 30.34 6.22 22.78 6.22 13.09 4.15 5.18 4.12 3.28 18.54 3.28 18.51 5.39"/>
  <polygon class="cls-7" points="14.3 5.39 13.44 13.08 13.44 22.78 13.91 30.34 13.68 50.46 13.17 51.99 9.55 51.99 9 50.49 8.73 30.34 9.21 22.78 9.21 13.09 8.36 5.18 8.34 3.28 14.31 3.28 14.3 5.39"/>
  <g>
    <line class="cls-5" x1=".2" y1="30.96" x2="4.88" y2="30.96"/>
    <polygon class="cls-8" points="2.87 30.42 2.87 31.54 0 31.26 0 30.64 2.87 30.42"/>
  </g>
  <line class="cls-5" x1="22.23" y1="30.98" x2="17.55" y2="30.98"/>
  <polygon class="cls-8" points="19.56 30.44 19.56 31.56 22.43 31.28 22.43 30.65 19.56 30.44"/>
  <polygon class="cls-2" points="18.51 5.39 16.44 13.08 16.44 22.78 17.55 30.34 17 50.46 13.57 54.74 9.24 54.74 5.71 50.49 5.06 30.34 6.22 22.78 6.22 13.09 4.15 5.18 4.12 3.28 18.54 3.28 18.51 5.39"/>
</svg>
