<?xml version="1.0" encoding="UTF-8"?>
<svg id="Layer_1" data-name="Layer 1" xmlns="http://www.w3.org/2000/svg" viewBox="0 0 48.25 48.25">
  <defs>
    <style>
      .cls-1 {
        fill: #ece9e3;
        stroke: #c2b59b;
        stroke-width: 2.28px;
      }

      .cls-2 {
        fill: #fff;
      }

      .cls-2, .cls-3, .cls-4 {
        stroke: #e1d2b4;
      }

      .cls-3 {
        fill: #f8f6f1;
      }

      .cls-4 {
        fill: #f0eeea;
      }
    </style>
  </defs>
  <path class="cls-1" d="M47.11,24.12c0,12.7-10.29,22.99-22.99,22.99S1.14,36.82,1.14,24.12,11.43,1.14,24.12,1.14s22.99,10.29,22.99,22.99Z"/>
  <path class="cls-4" d="M41.9,24.12c0,9.82-7.96,17.78-17.78,17.78S6.35,33.94,6.35,24.12,14.31,6.34,24.12,6.34s17.78,7.96,17.78,17.78Z"/>
  <path class="cls-3" d="M36.66,24.12c0,6.92-5.61,12.53-12.53,12.53s-12.53-5.61-12.53-12.53,5.61-12.53,12.53-12.53,12.53,5.61,12.53,12.53Z"/>
  <path class="cls-2" d="M31.47,24.12c0,4.06-3.29,7.35-7.35,7.35s-7.35-3.29-7.35-7.35,3.29-7.35,7.35-7.35,7.35,3.29,7.35,7.35Z"/>
</svg>
