<?xml version="1.0" encoding="UTF-8"?>
<svg id="Layer_1" data-name="Layer 1" xmlns="http://www.w3.org/2000/svg" xmlns:xlink="http://www.w3.org/1999/xlink" viewBox="0 0 38.94 34.86">
  <defs>
    <style>
      .cls-1 {
        fill: #6e2941;
      }

      .cls-2 {
        fill: url(#New_Gradient_Swatch_4-3);
      }

      .cls-2, .cls-3, .cls-4, .cls-5 {
        stroke: #414042;
      }

      .cls-3 {
        fill: url(#New_Gradient_Swatch_4-4);
      }

      .cls-4 {
        fill: url(#New_Gradient_Swatch_4);
      }

      .cls-6 {
        fill: url(#radial-gradient);
        stroke: #6e2941;
      }

      .cls-5 {
        fill: url(#New_Gradient_Swatch_4-2);
      }
    </style>
    <linearGradient id="New_Gradient_Swatch_4" data-name="New Gradient Swatch 4" x1="19.46" y1="11.9" x2="19.46" y2="2.45" gradientUnits="userSpaceOnUse">
      <stop offset="0" stop-color="#414042"/>
      <stop offset="1" stop-color="#393839"/>
    </linearGradient>
    <linearGradient id="New_Gradient_Swatch_4-2" data-name="New Gradient Swatch 4" x1="1133.37" y1="1656.36" x2="1133.37" y2="1646.91" gradientTransform="translate(1152.83 1681) rotate(-180)" xlink:href="#New_Gradient_Swatch_4"/>
    <linearGradient id="New_Gradient_Swatch_4-3" data-name="New Gradient Swatch 4" x1="-269.4" y1="1365.15" x2="-269.4" y2="1355.71" gradientTransform="translate(1394.35 286.65) rotate(90)" xlink:href="#New_Gradient_Swatch_4"/>
    <linearGradient id="New_Gradient_Swatch_4-4" data-name="New Gradient Swatch 4" x1="-269.4" y1="220.37" x2="-269.4" y2="210.92" gradientTransform="translate(-211.12 286.65) rotate(90) scale(1 -1)" xlink:href="#New_Gradient_Swatch_4"/>
    <radialGradient id="radial-gradient" cx="-47.45" cy="-15.69" fx="-47.45" fy="-15.69" r="10.78" gradientTransform="translate(65.75 32.55) scale(.98)" gradientUnits="userSpaceOnUse">
      <stop offset=".84" stop-color="#a44565"/>
      <stop offset=".89" stop-color="#8d3a56"/>
      <stop offset=".99" stop-color="#5b1d34"/>
    </radialGradient>
  </defs>
  <polyline class="cls-4" points="13.06 12.35 9.22 .5 29.7 .5 26.05 12.35"/>
  <polyline class="cls-5" points="25.86 22.51 29.7 34.36 9.22 34.36 12.86 22.51"/>
  <polyline class="cls-2" points="26.58 12.65 38.44 9.89 38.44 24.6 26.58 21.98"/>
  <polyline class="cls-3" points="12.35 12.65 .5 9.89 .5 24.6 12.35 21.98"/>
  <g>
    <path class="cls-1" d="M7.83,14.85h1.17c.78,0,1.41.63,1.41,1.41v1.97c0,.78-.63,1.41-1.41,1.41h-1.17c-.78,0-1.41-.63-1.41-1.41v-1.98c0-.77.63-1.4,1.4-1.4Z"/>
    <rect class="cls-1" x="27.98" y="14.85" width="3.98" height="4.79" rx="1.41" ry="1.41"/>
  </g>
  <path class="cls-6" d="M29.97,17.24c0,5.81-4.71,10.52-10.51,10.52s-10.51-4.71-10.51-10.52,4.71-10.52,10.51-10.52,10.51,4.71,10.51,10.52Z"/>
</svg>
