<?xml version="1.0" encoding="UTF-8"?>
<svg xmlns="http://www.w3.org/2000/svg" xmlns:xlink="http://www.w3.org/1999/xlink" viewBox="0 0 30.12 49.52">
  <defs>
    <style>
      .cls-1 {
        fill: #231f20;
      }

      .cls-2 {
        fill: url(#New_Gradient_Swatch_4);
      }

      .cls-2, .cls-3 {
        stroke: #414042;
      }

      .cls-4 {
        stroke: #a44565;
      }

      .cls-4, .cls-5, .cls-6, .cls-7 {
        stroke-width: 2px;
      }

      .cls-4, .cls-8, .cls-9 {
        fill: #a44565;
      }

      .cls-10, .cls-3, .cls-7 {
        fill: none;
      }

      .cls-11 {
        isolation: isolate;
      }

      .cls-5 {
        fill: #9e1f63;
      }

      .cls-5, .cls-6 {
        stroke: #923c59;
      }

      .cls-8 {
        stroke-width: .25px;
      }

      .cls-8, .cls-7 {
        stroke: #6e2941;
      }

      .cls-6, .cls-12 {
        fill: #414042;
      }

      .cls-13 {
        clip-path: url(#clippath);
      }

      .cls-14 {
        mix-blend-mode: darken;
        opacity: .92;
      }
    </style>
    <clipPath id="clippath">
      <path class="cls-10" d="M26.85,25.15l-1.04,2.25v15.14l1.04,2.08v2.63s-6.39,1.28-11.78,1.28-11.75-1.28-11.75-1.28v-2.71l1.04-1.99v-15.14l-1.04-2.25L1.25,13.22h27.68l-2.07,11.92Z"/>
    </clipPath>
    <linearGradient id="New_Gradient_Swatch_4" data-name="New Gradient Swatch 4" x1="15.02" y1=".94" x2="15.02" y2="9.94" gradientUnits="userSpaceOnUse">
      <stop offset="0" stop-color="#414042"/>
      <stop offset="1" stop-color="#393839"/>
    </linearGradient>
  </defs>
  <g class="cls-11">
    <g id="Layer_1" data-name="Layer 1">
      <g>
        <g>
          <polyline class="cls-12" points="3.17 15.86 3.14 13.53 2.34 13.53 2.34 11.07 3.05 11.04 3.02 10.29 1.46 10.29 1.43 14.25"/>
          <polyline class="cls-12" points="26.95 15.86 26.98 13.53 27.78 13.53 27.78 11.07 27.07 11.04 27.1 10.29 28.67 10.29 28.69 14.25"/>
          <polygon class="cls-12" points="26.76 19.58 3.31 19.58 3.31 17.81 26.76 17.81 26.76 19.58 26.76 19.58"/>
          <g>
            <rect class="cls-4" x="2.98" y="30.4" width="24.35" height="1.68"/>
            <rect class="cls-6" x="26.9" y="30.06" width=".43" height="2.35"/>
            <rect class="cls-5" x="2.93" y="30.06" width=".42" height="2.35"/>
          </g>
          <g class="cls-13">
            <polygon class="cls-9" points="25.75 49.51 3.59 49.51 2.52 13.22 26.83 13.22 25.75 49.51"/>
            <g class="cls-14">
              <path class="cls-1" d="M14.49,31.56c0,.19-.16.35-.35.35s-.36-.16-.36-.35.16-.36.36-.36.35.16.35.36Z"/>
              <path class="cls-1" d="M14.49,33.63c0,.2-.16.35-.35.35s-.36-.16-.36-.35.16-.35.36-.35.35.16.35.35Z"/>
              <path class="cls-1" d="M14.49,35.71c0,.2-.16.35-.35.35s-.36-.16-.36-.35.16-.35.36-.35.35.16.35.35Z"/>
              <path class="cls-1" d="M14.49,37.79c0,.2-.16.35-.35.35s-.36-.16-.36-.35.16-.35.36-.35.35.16.35.35Z"/>
              <path class="cls-1" d="M15.53,32.59c0,.19-.16.35-.36.35s-.35-.16-.35-.35.16-.35.35-.35.36.16.36.35Z"/>
              <path class="cls-1" d="M15.53,34.67c0,.19-.16.35-.36.35s-.35-.16-.35-.35.16-.36.35-.36.36.16.36.36Z"/>
              <path class="cls-1" d="M15.53,36.75c0,.19-.16.35-.36.35s-.35-.16-.35-.35.16-.35.35-.35.36.16.36.35Z"/>
              <path class="cls-1" d="M16.57,31.56c0,.19-.16.35-.36.35s-.35-.16-.35-.35.16-.36.35-.36.36.16.36.36Z"/>
              <path class="cls-1" d="M16.57,33.63c0,.2-.16.35-.36.35s-.35-.16-.35-.35.16-.35.35-.35.36.16.36.35Z"/>
              <path class="cls-1" d="M16.57,35.71c0,.2-.16.35-.36.35s-.35-.16-.35-.35.16-.35.35-.35.36.16.36.35Z"/>
              <path class="cls-1" d="M16.57,37.79c0,.2-.16.35-.36.35s-.35-.16-.35-.35.16-.35.35-.35.36.16.36.35Z"/>
              <path class="cls-1" d="M17.61,32.59c0,.19-.16.35-.36.35s-.35-.16-.35-.35.16-.35.35-.35.36.16.36.35Z"/>
              <path class="cls-1" d="M17.61,34.67c0,.19-.16.35-.36.35s-.35-.16-.35-.35.16-.36.35-.36.36.16.36.36Z"/>
              <path class="cls-1" d="M17.61,36.75c0,.19-.16.35-.36.35s-.35-.16-.35-.35.16-.35.35-.35.36.16.36.35Z"/>
              <path class="cls-1" d="M18.65,31.56c0,.19-.16.35-.36.35s-.35-.16-.35-.35.16-.36.35-.36.36.16.36.36Z"/>
              <path class="cls-1" d="M18.65,33.63c0,.2-.16.35-.36.35s-.35-.16-.35-.35.16-.35.35-.35.36.16.36.35Z"/>
              <path class="cls-1" d="M18.65,35.71c0,.2-.16.35-.36.35s-.35-.16-.35-.35.16-.35.35-.35.36.16.36.35Z"/>
              <path class="cls-1" d="M18.65,37.79c0,.2-.16.35-.36.35s-.35-.16-.35-.35.16-.35.35-.35.36.16.36.35Z"/>
              <path class="cls-1" d="M19.68,32.59c0,.19-.16.35-.35.35s-.35-.16-.35-.35.16-.35.35-.35.35.16.35.35Z"/>
              <path class="cls-1" d="M19.68,34.67c0,.19-.16.35-.35.35s-.35-.16-.35-.35.16-.36.35-.36.35.16.35.36Z"/>
              <circle class="cls-1" cx="19.33" cy="36.75" r=".35"/>
              <path class="cls-1" d="M20.72,31.56c0,.19-.16.35-.36.35s-.35-.16-.35-.35.16-.36.35-.36.36.16.36.36Z"/>
              <path class="cls-1" d="M20.72,33.63c0,.2-.16.35-.36.35s-.35-.16-.35-.35.16-.35.35-.35.36.16.36.35Z"/>
              <path class="cls-1" d="M20.72,35.71c0,.2-.16.35-.36.35s-.35-.16-.35-.35.16-.35.35-.35.36.16.36.35Z"/>
              <path class="cls-1" d="M20.72,37.79c0,.2-.16.35-.36.35s-.35-.16-.35-.35.16-.35.35-.35.36.16.36.35Z"/>
              <path class="cls-1" d="M21.76,32.59c0,.19-.16.35-.35.35s-.36-.16-.36-.35.16-.35.36-.35.35.16.35.35Z"/>
              <path class="cls-1" d="M21.76,34.67c0,.19-.16.35-.35.35s-.36-.16-.36-.35.16-.36.36-.36.35.16.35.36Z"/>
              <path class="cls-1" d="M21.76,36.75c0,.19-.16.35-.35.35s-.36-.16-.36-.35.16-.35.36-.35.35.16.35.35Z"/>
              <path class="cls-1" d="M22.8,31.56c0,.19-.16.35-.35.35s-.35-.16-.35-.35.16-.36.35-.36.35.16.35.36Z"/>
              <path class="cls-1" d="M22.8,33.63c0,.2-.16.35-.35.35s-.35-.16-.35-.35.16-.35.35-.35.35.16.35.35Z"/>
              <path class="cls-1" d="M22.8,35.71c0,.2-.16.35-.35.35s-.35-.16-.35-.35.16-.35.35-.35.35.16.35.35Z"/>
              <path class="cls-1" d="M22.8,37.79c0,.2-.16.35-.35.35s-.35-.16-.35-.35.16-.35.35-.35.35.16.35.35Z"/>
              <path class="cls-1" d="M23.83,32.59c0,.19-.16.35-.35.35s-.35-.16-.35-.35.16-.35.35-.35.35.16.35.35Z"/>
              <path class="cls-1" d="M23.83,34.67c0,.19-.16.35-.35.35s-.35-.16-.35-.35.16-.36.35-.36.35.16.35.36Z"/>
              <circle class="cls-1" cx="23.48" cy="36.75" r=".35"/>
              <path class="cls-1" d="M12.42,31.56c0,.19-.16.35-.36.35s-.35-.16-.35-.35.16-.36.35-.36.36.16.36.36Z"/>
              <path class="cls-1" d="M12.42,33.63c0,.2-.16.35-.36.35s-.35-.16-.35-.35.16-.35.35-.35.36.16.36.35Z"/>
              <path class="cls-1" d="M12.42,35.71c0,.2-.16.35-.36.35s-.35-.16-.35-.35.16-.35.35-.35.36.16.36.35Z"/>
              <path class="cls-1" d="M12.42,37.79c0,.2-.16.35-.36.35s-.35-.16-.35-.35.16-.35.35-.35.36.16.36.35Z"/>
              <path class="cls-1" d="M13.46,32.59c0,.19-.16.35-.36.35s-.35-.16-.35-.35.16-.35.35-.35.36.16.36.35Z"/>
              <path class="cls-1" d="M13.46,34.67c0,.19-.16.35-.36.35s-.35-.16-.35-.35.16-.36.35-.36.36.16.36.36Z"/>
              <path class="cls-1" d="M13.46,36.75c0,.19-.16.35-.36.35s-.35-.16-.35-.35.16-.35.35-.35.36.16.36.35Z"/>
              <path class="cls-1" d="M10.34,31.56c0,.19-.16.35-.36.35s-.35-.16-.35-.35.16-.36.35-.36.36.16.36.36Z"/>
              <path class="cls-1" d="M10.34,33.63c0,.2-.16.35-.36.35s-.35-.16-.35-.35.16-.35.35-.35.36.16.36.35Z"/>
              <path class="cls-1" d="M10.34,35.71c0,.2-.16.35-.36.35s-.35-.16-.35-.35.16-.35.35-.35.36.16.36.35Z"/>
              <path class="cls-1" d="M10.34,37.79c0,.2-.16.35-.36.35s-.35-.16-.35-.35.16-.35.35-.35.36.16.36.35Z"/>
              <path class="cls-1" d="M11.38,32.59c0,.19-.16.35-.36.35s-.35-.16-.35-.35.16-.35.35-.35.36.16.36.35Z"/>
              <path class="cls-1" d="M11.38,34.67c0,.19-.16.35-.36.35s-.35-.16-.35-.35.16-.36.35-.36.36.16.36.36Z"/>
              <path class="cls-1" d="M11.38,36.75c0,.19-.16.35-.36.35s-.35-.16-.35-.35.16-.35.35-.35.36.16.36.35Z"/>
              <path class="cls-1" d="M8.27,31.56c0,.19-.16.35-.35.35s-.35-.16-.35-.35.16-.36.35-.36.35.16.35.36Z"/>
              <path class="cls-1" d="M8.27,33.63c0,.2-.16.35-.35.35s-.35-.16-.35-.35.16-.35.35-.35.35.16.35.35Z"/>
              <path class="cls-1" d="M8.27,35.71c0,.2-.16.35-.35.35s-.35-.16-.35-.35.16-.35.35-.35.35.16.35.35Z"/>
              <path class="cls-1" d="M8.27,37.79c0,.2-.16.35-.35.35s-.35-.16-.35-.35.16-.35.35-.35.35.16.35.35Z"/>
              <path class="cls-1" d="M9.31,32.59c0,.19-.16.35-.35.35s-.35-.16-.35-.35.16-.35.35-.35.35.16.35.35Z"/>
              <path class="cls-1" d="M9.31,34.67c0,.19-.16.35-.35.35s-.35-.16-.35-.35.16-.36.35-.36.35.16.35.36Z"/>
              <path class="cls-1" d="M9.31,36.75c0,.19-.16.35-.35.35s-.35-.16-.35-.35.16-.35.35-.35.35.16.35.35Z"/>
              <path class="cls-1" d="M7.23,32.59c0,.19-.16.35-.36.35s-.35-.16-.35-.35.16-.35.35-.35.36.16.36.35Z"/>
              <path class="cls-1" d="M7.23,34.67c0,.19-.16.35-.36.35s-.35-.16-.35-.35.16-.36.35-.36.36.16.36.36Z"/>
              <path class="cls-1" d="M7.23,36.75c0,.19-.16.35-.36.35s-.35-.16-.35-.35.16-.35.35-.35.36.16.36.35Z"/>
            </g>
            <rect class="cls-8" x="3.35" y="43.06" width="23.5" height="6.01"/>
            <polygon class="cls-8" points="28.05 26.62 2.01 26.62 2.01 11.5 29.2 11.5 28.05 26.62"/>
            <path class="cls-7" d="M26.85,25.15l-1.04,2.25v15.14l1.04,2.08v2.63s-6.39,1.28-11.78,1.28-11.75-1.28-11.75-1.28v-2.71l1.04-1.99v-15.14l-1.04-2.25L1.25,13.22h27.68l-2.07,11.92Z"/>
          </g>
        </g>
        <g>
          <polyline class="cls-2" points="8.23 11.8 4.16 .5 25.87 .5 22.01 11.8"/>
          <line class="cls-3" x1="5.54" y1="11.8" x2=".45" y2=".8"/>
          <line class="cls-3" x1="24.5" y1="11.8" x2="29.58" y2=".8"/>
          <line class="cls-3" x1="3.21" y1="12.13" x2="26.82" y2="12.13"/>
        </g>
      </g>
    </g>
  </g>
</svg>
