<?xml version="1.0" encoding="UTF-8"?>
<svg xmlns="http://www.w3.org/2000/svg" xmlns:xlink="http://www.w3.org/1999/xlink" viewBox="0 0 33.55 39.47">
  <defs>
    <style>
      .cls-1 {
        fill: #9e1f63;
      }

      .cls-1, .cls-2 {
        stroke: #923c59;
      }

      .cls-3 {
        fill: #231f20;
      }

      .cls-4 {
        fill: #c05176;
      }

      .cls-4, .cls-5, .cls-6, .cls-7, .cls-8, .cls-9 {
        stroke: #6e2941;
      }

      .cls-4, .cls-5, .cls-6, .cls-8, .cls-9 {
        stroke-width: .25px;
      }

      .cls-10 {
        fill: url(#New_Gradient_Swatch_4);
      }

      .cls-10, .cls-11 {
        stroke: #414042;
      }

      .cls-2 {
        fill: #414042;
      }

      .cls-5 {
        fill: #a94868;
      }

      .cls-12, .cls-7, .cls-8, .cls-11 {
        fill: none;
      }

      .cls-13 {
        fill: #808285;
      }

      .cls-6 {
        fill: #97415d;
      }

      .cls-14 {
        fill: #8a3b55;
      }

      .cls-15 {
        isolation: isolate;
      }

      .cls-9 {
        fill: #9f4462;
      }

      .cls-16 {
        fill: #a44565;
        stroke: #a44565;
      }

      .cls-17 {
        clip-path: url(#clippath);
      }

      .cls-18 {
        mix-blend-mode: darken;
        opacity: .92;
      }
    </style>
    <linearGradient id="New_Gradient_Swatch_4" data-name="New Gradient Swatch 4" x1="16.77" y1=".99" x2="16.77" y2="11.08" gradientUnits="userSpaceOnUse">
      <stop offset="0" stop-color="#414042"/>
      <stop offset="1" stop-color="#393839"/>
    </linearGradient>
    <clipPath id="clippath">
      <path class="cls-12" d="M21.79,38.8s-2.62.29-4.78.29-4.87-.29-4.87-.29l-2.85-7.05-5.8-8.37.03-8.87h26.65s-.05,8.71-.05,8.71c-.15.45-1.13,1.93-5.5,8.52l-2.82,7.05h0Z"/>
    </clipPath>
  </defs>
  <g class="cls-15">
    <g id="Layer_1" data-name="Layer 1">
      <g>
        <g>
          <polyline class="cls-10" points="9.17 13.16 4.61 .5 28.94 .5 24.61 13.16"/>
          <line class="cls-11" x1="6.15" y1="13.16" x2=".45" y2=".84"/>
          <line class="cls-11" x1="27.4" y1="13.16" x2="33.09" y2=".84"/>
          <line class="cls-11" x1="3.69" y1="13.54" x2="29.71" y2="13.54"/>
        </g>
        <g>
          <g>
            <rect class="cls-16" x="1.79" y="19.6" width="29.91" height="2.31"/>
            <rect class="cls-2" x="31.18" y="19.15" width=".53" height="3.22"/>
            <rect class="cls-1" x="1.74" y="19.15" width=".52" height="3.22"/>
          </g>
          <g class="cls-17">
            <rect class="cls-14" x="3.98" y="31.45" width="25.68" height="8.01"/>
            <polyline class="cls-6" points="22.07 31.45 20.14 38.24 13.77 38.24 11.82 31.45"/>
            <polyline class="cls-9" points="19.96 31.45 18.82 38.24 15.07 38.24 13.93 31.45"/>
            <polyline class="cls-5" points="18.18 31.45 17.72 38.24 16.18 38.24 15.7 31.45"/>
            <path class="cls-5" d="M16.91,32.16c-3.62,0-7.19-.65-7.19-.65l-5.74-8.29v-8.24h25.68v8.24l-5.49,8.29s-3.63.65-7.26.65Z"/>
            <g class="cls-18">
              <path class="cls-3" d="M16.08,25.94c0,.19-.16.35-.36.35s-.36-.16-.36-.35.16-.35.36-.35.36.16.36.35Z"/>
              <path class="cls-3" d="M16.08,28.01c0,.2-.16.35-.36.35s-.36-.16-.36-.35.16-.35.36-.35.36.16.36.35Z"/>
              <path class="cls-3" d="M17.11,24.9c0,.19-.16.35-.36.35s-.35-.16-.35-.35.16-.35.35-.35.36.16.36.35Z"/>
              <path class="cls-3" d="M17.11,26.98c0,.2-.16.35-.36.35s-.35-.16-.35-.35.16-.35.35-.35.36.16.36.35Z"/>
              <path class="cls-3" d="M17.11,29.05c0,.19-.16.35-.36.35s-.35-.16-.35-.35.16-.35.35-.35.36.16.36.35Z"/>
              <path class="cls-3" d="M18.15,25.94c0,.19-.16.35-.36.35s-.35-.16-.35-.35.16-.35.35-.35.36.16.36.35Z"/>
              <path class="cls-3" d="M18.15,28.01c0,.2-.16.35-.36.35s-.35-.16-.35-.35.16-.35.35-.35.36.16.36.35Z"/>
              <path class="cls-3" d="M19.19,24.9c0,.19-.16.35-.36.35s-.35-.16-.35-.35.16-.35.35-.35.36.16.36.35Z"/>
              <path class="cls-3" d="M19.19,26.98c0,.2-.16.35-.36.35s-.35-.16-.35-.35.16-.35.35-.35.36.16.36.35Z"/>
              <path class="cls-3" d="M19.19,29.05c0,.19-.16.35-.36.35s-.35-.16-.35-.35.16-.35.35-.35.36.16.36.35Z"/>
              <path class="cls-3" d="M20.23,25.94c0,.19-.16.35-.36.35s-.35-.16-.35-.35.16-.35.35-.35.36.16.36.35Z"/>
              <path class="cls-3" d="M20.23,28.01c0,.2-.16.35-.36.35s-.35-.16-.35-.35.16-.35.35-.35.36.16.36.35Z"/>
              <path class="cls-3" d="M21.27,24.9c0,.19-.16.35-.36.35s-.35-.16-.35-.35.16-.35.35-.35.36.16.36.35Z"/>
              <path class="cls-3" d="M21.27,26.98c0,.2-.16.35-.36.35s-.35-.16-.35-.35.16-.35.35-.35.36.16.36.35Z"/>
              <path class="cls-3" d="M21.27,29.05c0,.19-.16.35-.36.35s-.35-.16-.35-.35.16-.35.35-.35.36.16.36.35Z"/>
              <path class="cls-3" d="M22.3,25.94c0,.19-.16.35-.35.35s-.35-.16-.35-.35.16-.35.35-.35.35.16.35.35Z"/>
              <path class="cls-3" d="M22.3,28.01c0,.2-.16.35-.35.35s-.35-.16-.35-.35.16-.35.35-.35.35.16.35.35Z"/>
              <path class="cls-3" d="M23.34,24.9c0,.19-.16.35-.35.35s-.35-.16-.35-.35.16-.35.35-.35.35.16.35.35Z"/>
              <path class="cls-3" d="M23.34,26.98c0,.2-.16.35-.35.35s-.35-.16-.35-.35.16-.35.35-.35.35.16.35.35Z"/>
              <path class="cls-3" d="M23.34,29.05c0,.19-.16.35-.35.35s-.35-.16-.35-.35.16-.35.35-.35.35.16.35.35Z"/>
              <path class="cls-3" d="M24.38,25.94c0,.19-.16.35-.36.35s-.35-.16-.35-.35.16-.35.35-.35.36.16.36.35Z"/>
              <path class="cls-3" d="M24.38,28.01c0,.2-.16.35-.36.35s-.35-.16-.35-.35.16-.35.35-.35.36.16.36.35Z"/>
              <path class="cls-3" d="M25.42,24.9c0,.19-.16.35-.35.35s-.35-.16-.35-.35.16-.35.35-.35.35.16.35.35Z"/>
              <circle class="cls-3" cx="25.06" cy="26.98" r=".35"/>
              <path class="cls-3" d="M26.41,25.94c0,.19-.16.35-.35.35s-.35-.16-.35-.35.16-.35.35-.35.35.16.35.35Z"/>
              <path class="cls-3" d="M27.44,24.9c0,.19-.16.35-.35.35s-.35-.16-.35-.35.16-.35.35-.35.35.16.35.35Z"/>
              <path class="cls-3" d="M14,25.94c0,.19-.16.35-.36.35s-.35-.16-.35-.35.16-.35.35-.35.36.16.36.35Z"/>
              <path class="cls-3" d="M14,28.01c0,.2-.16.35-.36.35s-.35-.16-.35-.35.16-.35.35-.35.36.16.36.35Z"/>
              <path class="cls-3" d="M15.04,24.9c0,.19-.16.35-.35.35s-.36-.16-.36-.35.16-.35.36-.35.35.16.35.35Z"/>
              <path class="cls-3" d="M15.04,26.98c0,.2-.16.35-.35.35s-.36-.16-.36-.35.16-.35.36-.35.35.16.35.35Z"/>
              <path class="cls-3" d="M15.04,29.05c0,.19-.16.35-.35.35s-.36-.16-.36-.35.16-.35.36-.35.35.16.35.35Z"/>
              <path class="cls-3" d="M11.93,25.94c0,.19-.16.35-.35.35s-.35-.16-.35-.35.16-.35.35-.35.35.16.35.35Z"/>
              <path class="cls-3" d="M11.93,28.01c0,.2-.16.35-.35.35s-.35-.16-.35-.35.16-.35.35-.35.35.16.35.35Z"/>
              <path class="cls-3" d="M12.96,24.9c0,.19-.16.35-.36.35s-.35-.16-.35-.35.16-.35.35-.35.36.16.36.35Z"/>
              <path class="cls-3" d="M12.96,26.98c0,.2-.16.35-.36.35s-.35-.16-.35-.35.16-.35.35-.35.36.16.36.35Z"/>
              <path class="cls-3" d="M12.96,29.05c0,.19-.16.35-.36.35s-.35-.16-.35-.35.16-.35.35-.35.36.16.36.35Z"/>
              <path class="cls-3" d="M9.85,25.94c0,.19-.16.35-.35.35s-.35-.16-.35-.35.16-.35.35-.35.35.16.35.35Z"/>
              <path class="cls-3" d="M9.85,28.01c0,.2-.16.35-.35.35s-.35-.16-.35-.35.16-.35.35-.35.35.16.35.35Z"/>
              <path class="cls-3" d="M10.89,24.9c0,.19-.16.35-.36.35s-.35-.16-.35-.35.16-.35.35-.35.36.16.36.35Z"/>
              <path class="cls-3" d="M10.89,26.98c0,.2-.16.35-.36.35s-.35-.16-.35-.35.16-.35.35-.35.36.16.36.35Z"/>
              <path class="cls-3" d="M10.89,29.05c0,.19-.16.35-.36.35s-.35-.16-.35-.35.16-.35.35-.35.36.16.36.35Z"/>
              <path class="cls-3" d="M8.81,24.9c0,.19-.16.35-.35.35s-.35-.16-.35-.35.16-.35.35-.35.35.16.35.35Z"/>
              <circle class="cls-3" cx="8.46" cy="26.98" r=".35"/>
              <path class="cls-3" d="M9.9,28.01c0,.2-.16.35-.36.35s-.35-.16-.35-.35.16-.35.35-.35.36.16.36.35Z"/>
              <path class="cls-3" d="M7.82,25.94c0,.19-.16.35-.35.35s-.35-.16-.35-.35.16-.35.35-.35.35.16.35.35Z"/>
              <path class="cls-3" d="M8.86,24.9c0,.19-.16.35-.36.35s-.35-.16-.35-.35.16-.35.35-.35.36.16.36.35Z"/>
              <path class="cls-3" d="M8.86,26.98c0,.2-.16.35-.36.35s-.35-.16-.35-.35.16-.35.35-.35.36.16.36.35Z"/>
              <path class="cls-3" d="M6.78,24.9c0,.19-.16.35-.36.35s-.35-.16-.35-.35.16-.35.35-.35.36.16.36.35Z"/>
            </g>
            <path class="cls-4" d="M29.65,23s-7.19.36-12.88.36c-6.11,0-12.8-.36-12.8-.36v-8.01h25.68v8.01Z"/>
            <path class="cls-8" d="M3.98,18.89s9.63.22,12.67.22,13-.22,13-.22"/>
            <path class="cls-7" d="M29.65,23.22l-5.49,8.29-2.72,6.79s-2.02.36-4.44.36-4.54-.36-4.54-.36l-2.75-6.79-5.74-8.29v-8.24h25.68v8.24Z"/>
          </g>
          <polygon class="cls-13" points="29.55 16.08 29.55 14.52 29.96 14.52 29.96 12.91 29.61 12.89 29.62 12.4 30.42 12.38 30.74 15 30.57 16.08 29.55 16.08"/>
          <polygon class="cls-13" points="3.89 16.08 3.89 14.51 3.48 14.51 3.48 12.91 3.84 12.89 3.83 12.4 3.03 12.38 2.7 15 2.88 16.08 3.89 16.08"/>
        </g>
      </g>
    </g>
  </g>
</svg>
