<?xml version="1.0" encoding="UTF-8"?>
<svg id="Layer_1" data-name="Layer 1" xmlns="http://www.w3.org/2000/svg" xmlns:xlink="http://www.w3.org/1999/xlink" viewBox="0 0 21.93 33.8">
  <defs>
    <style>
      .cls-1 {
        fill: url(#linear-gradient-2);
      }

      .cls-2 {
        mask: url(#mask-1);
      }

      .cls-3 {
        mask: url(#mask);
      }

      .cls-4 {
        fill: url(#linear-gradient-4);
      }

      .cls-5 {
        fill: #808285;
      }

      .cls-6 {
        fill: url(#radial-gradient);
      }

      .cls-7 {
        mask: url(#mask-2);
      }

      .cls-8 {
        filter: url(#luminosity-noclip-3);
      }

      .cls-9 {
        fill: url(#linear-gradient-5);
      }

      .cls-10 {
        fill: #d1d3d4;
      }

      .cls-11 {
        fill: #a7a9ac;
      }

      .cls-12 {
        fill: #e6e7e8;
      }

      .cls-13 {
        fill: url(#linear-gradient-3);
      }

      .cls-13, .cls-14 {
        mix-blend-mode: multiply;
      }

      .cls-15 {
        fill: #58595b;
      }

      .cls-14 {
        fill: url(#linear-gradient);
      }

      .cls-16 {
        mask: url(#mask-3);
      }

      .cls-17 {
        filter: url(#luminosity-noclip);
      }
    </style>
    <radialGradient id="radial-gradient" cx="349.1" cy="-873.7" fx="349.1" fy="-873.7" r="7.19" gradientTransform="translate(-122.61 346.11) scale(.38)" gradientUnits="userSpaceOnUse">
      <stop offset="0" stop-color="#fef6aa"/>
      <stop offset="1" stop-color="#fff"/>
    </radialGradient>
    <filter id="luminosity-noclip" x=".5" y=".5" width="20.93" height="30.37" color-interpolation-filters="sRGB" filterUnits="userSpaceOnUse">
      <feFlood flood-color="#fff" result="bg"/>
      <feBlend in="SourceGraphic" in2="bg"/>
    </filter>
    <filter id="luminosity-noclip-2" x=".5" y="-8913.5" width="20.93" height="32766" color-interpolation-filters="sRGB" filterUnits="userSpaceOnUse">
      <feFlood flood-color="#fff" result="bg"/>
      <feBlend in="SourceGraphic" in2="bg"/>
    </filter>
    <mask id="mask-1" x=".5" y="-8913.5" width="20.93" height="32766" maskUnits="userSpaceOnUse"/>
    <linearGradient id="linear-gradient" x1=".5" y1="15.68" x2="21.43" y2="15.68" gradientUnits="userSpaceOnUse">
      <stop offset="0" stop-color="#ababab"/>
      <stop offset="1" stop-color="#8c8c8c"/>
    </linearGradient>
    <mask id="mask" x=".5" y=".5" width="20.93" height="30.37" maskUnits="userSpaceOnUse">
      <g class="cls-17">
        <g class="cls-2">
          <path class="cls-14" d="M21.32,11.22c-.38,2.68-6.05,9.67-6.05,13.91,0,5.78-2.47,5.77-4.37,5.72-1.75-.04-4.62.03-4.87-5.52-.21-4.52-5.18-11.39-5.47-14.11C-.14,4.56,5.18.5,10.91.5s11.36,4.06,10.42,10.72Z"/>
        </g>
      </g>
    </mask>
    <linearGradient id="linear-gradient-2" x1=".5" y1="15.68" x2="21.43" y2="15.68" gradientUnits="userSpaceOnUse">
      <stop offset="0" stop-color="#fff"/>
      <stop offset="1" stop-color="#bec0c2"/>
    </linearGradient>
    <filter id="luminosity-noclip-3" x="2.75" y="4.21" width="3.94" height="7.87" color-interpolation-filters="sRGB" filterUnits="userSpaceOnUse">
      <feFlood flood-color="#fff" result="bg"/>
      <feBlend in="SourceGraphic" in2="bg"/>
    </filter>
    <filter id="luminosity-noclip-4" x="2.75" y="-8913.5" width="3.94" height="32766" color-interpolation-filters="sRGB" filterUnits="userSpaceOnUse">
      <feFlood flood-color="#fff" result="bg"/>
      <feBlend in="SourceGraphic" in2="bg"/>
    </filter>
    <mask id="mask-3" x="2.75" y="-8913.5" width="3.94" height="32766" maskUnits="userSpaceOnUse"/>
    <linearGradient id="linear-gradient-3" x1="2.75" y1="8.15" x2="6.69" y2="8.15" gradientUnits="userSpaceOnUse">
      <stop offset="0" stop-color="#ababab"/>
      <stop offset="1" stop-color="#8c8c8c"/>
    </linearGradient>
    <mask id="mask-2" x="2.75" y="4.21" width="3.94" height="7.87" maskUnits="userSpaceOnUse">
      <g class="cls-8">
        <g class="cls-16">
          <path class="cls-13" d="M5.08,4.21c-1.52,1.25-3.09,5.75-1.93,7.87l3.54-.62s-1-4,0-6.25l-1.61-1Z"/>
        </g>
      </g>
    </mask>
    <linearGradient id="linear-gradient-4" x1="2.75" y1="8.15" x2="6.69" y2="8.15" xlink:href="#linear-gradient-2"/>
    <linearGradient id="linear-gradient-5" x1="5.76" y1="28.44" x2="15.4" y2="28.44" gradientTransform="translate(.04 -.02)" gradientUnits="userSpaceOnUse">
      <stop offset="0" stop-color="#888a8c"/>
      <stop offset="1" stop-color="#5a5b5d"/>
    </linearGradient>
  </defs>
  <path class="cls-6" d="M6.9,12.85s2.4-.66,2.71-1.04c.48.12,1.99.24,2.39.05.43.17,1.88,1.13,2.59.99-1.39.21-2.33-.34-2.59-.8-.53.29-1.77.45-2.28-.03-.41.43-2.83.82-2.83.82Z"/>
  <path class="cls-11" d="M5.84,23.39c2.78-1.95,7.69-1.88,9.57,0,1.88,1.88-.77,5.01-.77,5.01l-8.7-1.79-.13-2.16"/>
  <g>
    <path class="cls-11" d="M8.4,32.8h4.29s-.3.5-2.14.5-2.15-.5-2.15-.5Z"/>
    <path class="cls-15" d="M10.55,33.8h0c-1.91,0-2.43-.51-2.57-.73l-.48-.77h6.08s-.46.76-.46.76c-.13.22-.65.74-2.57.74h0Z"/>
  </g>
  <g>
    <g class="cls-3">
      <path class="cls-1" d="M21.32,11.22c-.38,2.68-6.05,9.67-6.05,13.91,0,5.78-2.47,5.77-4.37,5.72-1.75-.04-4.62.03-4.87-5.52-.21-4.52-5.18-11.39-5.47-14.11C-.14,4.56,5.18.5,10.91.5s11.36,4.06,10.42,10.72Z"/>
    </g>
    <path class="cls-10" d="M11.39,31.37c-.17,0-.34,0-.5,0h-.13c-1.74-.04-4.97-.12-5.23-6-.11-2.52-1.79-5.84-3.28-8.78C1.15,14.4.2,12.51.07,11.28c-.32-2.98.5-5.64,2.36-7.71C4.46,1.3,7.56,0,10.91,0s6.76,1.41,8.81,3.77c1.78,2.06,2.51,4.66,2.11,7.52-.17,1.19-1.21,3.02-2.42,5.14-1.61,2.82-3.62,6.33-3.62,8.71,0,2.52-.46,4.22-1.4,5.2-.88.91-2,1.03-2.98,1.03h0ZM10.91,1c-3.07,0-5.89,1.18-7.74,3.24-1.66,1.85-2.39,4.25-2.1,6.93.11,1.05,1.07,2.95,2.09,4.96,1.53,3.02,3.26,6.45,3.38,9.18.22,4.95,2.55,5,4.25,5.04h.13c.93.03,1.99.05,2.73-.72.75-.77,1.12-2.29,1.12-4.5,0-2.64,1.99-6.13,3.75-9.2,1.11-1.95,2.16-3.78,2.3-4.78.37-2.57-.28-4.89-1.87-6.73-1.86-2.15-4.87-3.43-8.05-3.43h0Z"/>
  </g>
  <path class="cls-10" d="M11.39,31.37c-.17,0-.34,0-.5,0h-.13c-1.74-.04-4.97-.12-5.23-6-.11-2.52-1.79-5.84-3.28-8.78C1.15,14.4.2,12.51.07,11.28c-.32-2.98.5-5.64,2.36-7.71C4.46,1.3,7.56,0,10.91,0s6.76,1.41,8.81,3.77c1.78,2.06,2.51,4.66,2.11,7.52-.17,1.19-1.21,3.02-2.42,5.14-1.61,2.82-3.62,6.33-3.62,8.71,0,2.52-.46,4.22-1.4,5.2-.88.91-2,1.03-2.98,1.03h0ZM10.91,1c-3.07,0-5.89,1.18-7.74,3.24-1.66,1.85-2.39,4.25-2.1,6.93.11,1.05,1.07,2.95,2.09,4.96,1.53,3.02,3.26,6.45,3.38,9.18.22,4.95,2.55,5,4.25,5.04h.13c.93.03,1.99.05,2.73-.72.75-.77,1.12-2.29,1.12-4.5,0-2.64,1.99-6.13,3.75-9.2,1.11-1.95,2.16-3.78,2.3-4.78.37-2.57-.28-4.89-1.87-6.73-1.86-2.15-4.87-3.43-8.05-3.43h0Z"/>
  <g class="cls-7">
    <path class="cls-4" d="M5.08,4.21c-1.52,1.25-3.09,5.75-1.93,7.87l3.54-.62s-1-4,0-6.25l-1.61-1Z"/>
  </g>
  <path class="cls-12" d="M9.48,25.11s-.79-6.38-.46-7.31c.23-.65,1.05-.52,1.1-.98.05-.46,1.34-.4,1.43,0,.1.4.81.44.95.98.25.94-.37,7.31-.37,7.31"/>
  <polygon class="cls-5" points="9.68 24.91 9.11 17.55 6.76 12.82 6.86 12.77 9.22 17.52 9.8 24.9 9.68 24.91 9.68 24.91"/>
  <polygon class="cls-5" points="11.83 24.91 11.72 24.9 12.32 17.54 14.74 12.77 14.85 12.82 12.44 17.58 11.83 24.91 11.83 24.91"/>
  <path class="cls-12" d="M10.41,16.82v-2.51s-.43.05-.43-.24.67-.45,1-.44c.33.01.83.17.8.41-.03.24-.51.27-.51.27l-.1,2.51"/>
  <path class="cls-11" d="M10.24,14.06l-.75-2.01s-.02-.05-.02-.1c-.13-.09-.27-.19-.33-.23l.07-.1c.08.06.18.13.26.19,0-.03.02-.05.04-.07.05-.05.12-.07.23-.04.19.05.24.16.22.26-.02.1-.12.18-.2.17-.03,0-.08-.03-.15-.07l.74,1.97-.11.04h0Z"/>
  <path class="cls-11" d="M11.5,14.11l-.12-.04.66-1.96s-.09.06-.12.06c-.08.02-.16-.07-.18-.16-.02-.09.02-.22.2-.27.11-.03.17,0,.2.04.02.02.03.04.04.07.07-.05.15-.12.22-.18l.08.09c-.07.06-.18.15-.29.23,0,.05-.02.08-.02.1l-.67,2.01h0Z"/>
  <g>
    <path class="cls-9" d="M5.84,24.04s1.67.85,5.07.85,4.5-.85,4.5-.85c0,0,.78,8.62-4.79,8.76-5.56.14-4.78-8.76-4.78-8.76Z"/>
    <path class="cls-5" d="M10.49,33.3c-1.32,0-2.41-.47-3.26-1.39-2.33-2.55-1.91-7.7-1.89-7.92l.06-.73.66.33s1.63.79,4.84.79,4.19-.74,4.2-.75l.71-.52.09.87c.02.21.44,5.18-1.87,7.78-.87.98-2.02,1.49-3.4,1.53h-.14ZM6.3,24.76c-.03,1.43.08,4.76,1.67,6.48.66.72,1.48,1.07,2.52,1.07h.12c1.11-.03,1.98-.42,2.68-1.2,1.54-1.73,1.68-4.86,1.66-6.29-.71.26-1.97.56-4.03.56-2.27,0-3.79-.37-4.61-.63h0Z"/>
  </g>
  <path class="cls-5" d="M15.66,28.27s-.09,0-.13,0l-10.14-1.31c-.55-.07-.93-.57-.86-1.12.07-.55.57-.94,1.12-.86l10.14,1.31c.55.07.93.57.86,1.12-.06.5-.49.87-.99.87h0Z"/>
  <path class="cls-5" d="M15.05,30.69s-.09,0-.14,0l-9.25-1.26c-.55-.08-.93-.58-.86-1.13.07-.55.58-.93,1.13-.86l9.25,1.27c.55.07.93.58.86,1.13-.07.5-.5.86-.99.86h0Z"/>
  <path class="cls-5" d="M13.63,32.89s-.09,0-.14,0l-6.84-.95c-.55-.08-.93-.58-.85-1.13.08-.55.58-.93,1.13-.85l6.84.95c.55.08.93.58.85,1.13-.07.5-.5.86-.99.86h0Z"/>
</svg>